<svg width="36" height="36" viewBox="0 0 36 36" fill="none" xmlns="http://www.w3.org/2000/svg">
<path d="M25.5 3H10.5C6.35786 3 3 6.35786 3 10.5V25.5C3 29.6421 6.35786 33 10.5 33H25.5C29.6421 33 33 29.6421 33 25.5V10.5C33 6.35786 29.6421 3 25.5 3Z" stroke="#FAFAFA" stroke-width="2" stroke-linecap="round" stroke-linejoin="round"/>
<path d="M24 17.0574C24.1852 18.3058 23.9719 19.5807 23.3907 20.7009C22.8094 21.8211 21.8898 22.7295 20.7625 23.2969C19.6352 23.8643 18.3577 24.0618 17.1117 23.8613C15.8657 23.6608 14.7147 23.0725 13.8223 22.1801C12.9299 21.2878 12.3416 20.1367 12.1412 18.8907C11.9407 17.6447 12.1381 16.3672 12.7055 15.24C13.2729 14.1127 14.1813 13.193 15.3015 12.6118C16.4217 12.0305 17.6967 11.8173 18.945 12.0024C20.2184 12.1912 21.3973 12.7846 22.3076 13.6949C23.2179 14.6051 23.8112 15.784 24 17.0574Z" stroke="#FAFAFA" stroke-width="2" stroke-linecap="round" stroke-linejoin="round"/>
<path d="M26.25 9.75H26.265" stroke="#FAFAFA" stroke-width="2" stroke-linecap="round" stroke-linejoin="round"/>
</svg>
