<svg width="36" height="36" viewBox="0 0 36 36" fill="none" xmlns="http://www.w3.org/2000/svg">
<g clip-path="url(#clip0_548_2238)">
<path fill-rule="evenodd" clip-rule="evenodd" d="M3 17.25C3 9.9645 9.984 4.5 18 4.5C26.016 4.5 33 9.9645 33 17.25C33 24.5355 26.016 30 18 30C17.2125 30 16.437 29.949 15.681 29.85L11.331 32.748C11.0842 32.9124 10.7942 32.9999 10.4976 32.9996C10.201 32.9992 9.91123 32.9109 9.66482 32.7459C9.41841 32.5809 9.22645 32.3465 9.11319 32.0724C8.99993 31.7983 8.97046 31.4968 9.0285 31.206L9.696 27.8745C5.742 25.635 3 21.7755 3 17.25ZM15 10.5C15.3978 10.5 15.7794 10.658 16.0607 10.9393C16.342 11.2206 16.5 11.6022 16.5 12V22.5C16.5 22.8978 16.342 23.2794 16.0607 23.5607C15.7794 23.842 15.3978 24 15 24C14.6022 24 14.2206 23.842 13.9393 23.5607C13.658 23.2794 13.5 22.8978 13.5 22.5V12C13.5 11.6022 13.658 11.2206 13.9393 10.9393C14.2206 10.658 14.6022 10.5 15 10.5ZM16.5 18.75C16.5 18.4185 16.6095 18.087 16.83 17.8125L19.83 14.0625C20.0831 13.7661 20.4415 13.5799 20.8295 13.5432C21.2175 13.5065 21.6045 13.6223 21.9087 13.866C22.2128 14.1097 22.4101 14.4622 22.4589 14.8488C22.5077 15.2355 22.4041 15.6259 22.17 15.9375L19.92 18.75L22.17 21.5625C22.3005 21.7153 22.3989 21.8928 22.4595 22.0843C22.5201 22.2759 22.5415 22.4777 22.5226 22.6777C22.5037 22.8778 22.4448 23.072 22.3494 23.2488C22.254 23.4256 22.124 23.5815 21.9672 23.7071C21.8104 23.8328 21.63 23.9256 21.4366 23.9802C21.2433 24.0347 21.0409 24.0499 20.8415 24.0248C20.6422 23.9996 20.4499 23.9347 20.2762 23.8338C20.1024 23.7329 19.9507 23.5981 19.83 23.4375L16.83 19.6875C16.6164 19.4217 16.5 19.091 16.5 18.75Z" fill="#FAFAFA"/>
</g>
<defs>
<clipPath id="clip0_548_2238">
<rect width="36" height="36" fill="white"/>
</clipPath>
</defs>
</svg>
