<svg width="24" height="24" viewBox="0 0 24 24" fill="none" xmlns="http://www.w3.org/2000/svg">
<path d="M12.0655 2.60164C11.8116 2.60064 11.5578 2.60948 11.3047 2.62814C10.0574 2.69431 8.84117 3.04789 7.704 3.55197C7.9375 3.55139 8.194 3.51222 8.40317 3.64247C8.66042 3.78489 8.77784 4.08164 9.02359 4.23497C9.37251 4.37056 9.74826 4.24089 10.104 4.20181C11.2424 4.06956 12.4189 4.29364 13.4373 4.81739C14.094 5.16289 14.6871 5.61847 15.2311 6.12064C16.0686 6.85689 16.7569 7.74356 17.5864 8.48864C17.857 8.72956 18.1681 8.92672 18.5062 9.05831C19.2965 9.36872 20.1704 9.34447 20.9668 9.63472C21.2178 9.71914 21.4427 9.85947 21.6702 9.99306C21.5332 9.54556 21.3873 9.10089 21.2017 8.67156C20.383 6.74081 18.9348 5.08881 17.1356 4.01439C15.6132 3.09489 13.8418 2.60889 12.0655 2.60164ZM6.15667 4.48739C4.70359 5.52606 3.54142 6.96764 2.83209 8.60622C2.25109 9.92897 1.97975 11.3792 2.00334 12.8214C2.004 15.3171 2.00809 17.8128 2.00134 20.3085C1.9885 20.4443 2.07084 20.559 2.12692 20.6757C3.09192 20.7352 4.06175 20.6871 5.02884 20.7013C4.55375 20.5286 4.00909 20.2452 3.91734 19.6945C3.76742 18.9008 4.1495 18.1295 4.55917 17.4747C5.2165 16.4516 6.08717 15.5886 6.98467 14.7766C8.07392 13.8331 9.27917 13.0334 10.5156 12.2971C10.847 12.0838 11.2283 11.9159 11.4666 11.5885C11.2499 11.6067 11.0373 11.66 10.8403 11.7518C10.0176 12.1095 9.23742 12.557 8.46875 13.0178C7.73509 13.472 6.99625 13.9216 6.30642 14.442C5.82392 14.7875 5.37384 15.1734 4.90675 15.5391C4.80359 14.7556 4.6165 13.9871 4.42009 13.2224C4.17909 12.2067 4.02259 11.1599 4.09009 10.1139C4.14009 9.04281 4.4815 7.97922 5.11859 7.11206C5.36359 6.75297 5.70109 6.46614 5.93325 6.09831C6.13292 5.78381 5.83259 5.45856 5.85825 5.13056C5.85359 4.88014 6.01967 4.68039 6.15667 4.48739ZM19.1231 11.8622C18.9836 11.8601 18.8433 11.8714 18.7081 11.8856C17.6114 12.0197 16.5634 12.397 15.5437 12.8066C13.2592 13.7663 11.053 14.9528 9.0925 16.4767C8.311 17.1016 7.53825 17.7636 6.95984 18.5877C6.78509 18.8624 6.56567 19.1986 6.68984 19.5346C6.84917 19.756 7.146 19.7951 7.39775 19.8288C8.27775 19.9071 9.16001 19.7641 10.0191 19.5805C11.7529 19.1863 13.4313 18.533 14.9553 17.6151C16.1005 16.9531 17.2079 16.2155 18.2014 15.3402C18.7588 14.8347 19.2953 14.2901 19.6793 13.6375C19.8568 13.3243 20.0134 12.9815 20.0059 12.6136C20.008 12.4065 19.9863 12.1474 19.7853 12.0327C19.5858 11.9066 19.3557 11.8658 19.1231 11.8622ZM21.978 11.9252C21.3206 13.5861 20.0182 14.8827 18.6704 16.007C17.4954 16.96 16.2152 17.7799 14.8736 18.4776C13.0528 19.494 11.0928 20.2918 9.04109 20.694C13.2369 20.7123 17.4333 20.6973 21.629 20.7013C21.8173 20.7276 22.0103 20.5826 21.9968 20.3841C22.0023 17.9971 21.9968 15.6101 21.9989 13.2231C22.0003 12.7905 22.005 12.3571 21.978 11.9252ZM12.5977 14.7848C12.898 15.4266 12.9318 16.1987 12.6429 16.85C12.3756 17.4905 11.8229 17.9958 11.169 18.2226C10.2936 18.5243 9.27234 18.2908 8.61434 17.6381C9.78259 16.4861 11.1642 15.5731 12.5977 14.7848Z" fill="#FAFAFA"/>
</svg>
